<?xml version="1.0" encoding="utf-8"?>
<!DOCTYPE svg PUBLIC "-//W3C//DTD SVG 1.0//EN" "http://www.w3.org/TR/2001/REC-SVG-20010904/DTD/svg10.dtd">
<svg version="1.0" id="Ebene_1" xmlns="http://www.w3.org/2000/svg" xmlns:xlink="http://www.w3.org/1999/xlink"
	 xml:space="preserve">
<path fill="#D42836" d="M39.423,113.859c-2.121-2.121-4.511-3.75-7.17-4.888c-2.659-1.137-5.756-1.706-9.291-1.706
	c-3.72,0-7.009,0.615-9.867,1.845c-2.859,1.229-5.257,2.928-7.193,5.095s-3.405,4.734-4.403,7.7C0.499,124.872,0,128.091,0,131.565
	c0,3.873,0.56,7.324,1.683,10.351c1.122,3.028,2.643,5.587,4.565,7.677c1.921,2.091,4.173,3.682,6.755,4.772
	s5.333,1.637,8.253,1.637c1.66,0,3.335-0.123,5.026-0.369c1.69-0.247,3.327-0.669,4.91-1.268c1.583-0.6,3.112-1.398,4.588-2.398
	c1.476-0.999,2.843-2.236,4.104-3.711l-3.274-4.15c-0.461-0.707-1.153-1.061-2.075-1.061c-0.708,0-1.345,0.223-1.914,0.668
	c-0.569,0.446-1.238,0.938-2.006,1.476c-0.769,0.538-1.714,1.03-2.836,1.476c-1.122,0.446-2.59,0.668-4.403,0.668
	c-1.814,0-3.443-0.346-4.888-1.038c-1.445-0.691-2.674-1.706-3.688-3.043c-1.014-1.337-1.791-2.989-2.329-4.957
	c-0.538-1.967-0.807-4.211-0.807-6.732c0-2.428,0.246-4.603,0.738-6.525c0.491-1.92,1.237-3.558,2.236-4.91
	c0.999-1.353,2.251-2.39,3.758-3.112c1.506-0.722,3.258-1.084,5.256-1.084c1.568,0,2.882,0.177,3.942,0.53
	c1.061,0.354,1.975,0.754,2.743,1.199c0.768,0.446,1.429,0.846,1.983,1.199c0.553,0.354,1.122,0.53,1.706,0.53
	c0.615,0,1.083-0.123,1.406-0.369c0.323-0.246,0.653-0.583,0.991-1.014L39.423,113.859z"/>
<path fill="#D42836" d="M57.727,108.971c-2.89,1.138-5.356,2.751-7.4,4.842c-2.045,2.09-3.627,4.642-4.749,7.654
	c-1.122,3.013-1.683,6.379-1.683,10.098c0,3.75,0.561,7.131,1.683,10.144c1.122,3.013,2.705,5.579,4.749,7.7
	c2.044,2.121,4.511,3.75,7.4,4.887c2.889,1.137,6.102,1.706,9.637,1.706c3.534,0,6.739-0.569,9.613-1.706
	c2.874-1.137,5.326-2.767,7.354-4.887c2.029-2.121,3.597-4.688,4.703-7.7c1.107-3.013,1.66-6.394,1.66-10.144
	c0-3.719-0.553-7.085-1.66-10.098c-1.106-3.012-2.674-5.563-4.703-7.654s-4.48-3.704-7.354-4.842
	c-2.875-1.137-6.079-1.706-9.613-1.706C63.829,107.265,60.616,107.834,57.727,108.971z M58.511,143.253
	c-1.906-2.659-2.859-6.524-2.859-11.597c0-5.072,0.953-8.952,2.859-11.642c1.905-2.689,4.856-4.035,8.853-4.035
	c3.934,0,6.847,1.337,8.737,4.011s2.836,6.563,2.836,11.666c0,5.103-0.945,8.977-2.836,11.62c-1.891,2.644-4.803,3.965-8.737,3.965
	C63.368,147.242,60.417,145.913,58.511,143.253z"/>
<path fill="#D42836" d="M110.153,108.971c-2.89,1.138-5.356,2.751-7.4,4.842c-2.045,2.09-3.627,4.642-4.75,7.654
	c-1.122,3.013-1.683,6.379-1.683,10.098c0,3.75,0.561,7.131,1.683,10.144s2.705,5.579,4.75,7.7c2.044,2.121,4.511,3.75,7.4,4.887
	c2.889,1.137,6.102,1.706,9.637,1.706c3.535,0,6.739-0.569,9.614-1.706c2.874-1.137,5.326-2.767,7.354-4.887
	c2.029-2.121,3.597-4.688,4.703-7.7s1.66-6.394,1.66-10.144c0-3.719-0.554-7.085-1.66-10.098c-1.106-3.012-2.674-5.563-4.703-7.654
	s-4.48-3.704-7.354-4.842c-2.875-1.137-6.079-1.706-9.614-1.706C116.255,107.265,113.042,107.834,110.153,108.971z M110.937,143.253
	c-1.906-2.659-2.858-6.524-2.858-11.597c0-5.072,0.952-8.952,2.858-11.642c1.906-2.689,4.857-4.035,8.853-4.035
	c3.935,0,6.847,1.337,8.738,4.011s2.836,6.563,2.836,11.666c0,5.103-0.945,8.977-2.836,11.62c-1.891,2.644-4.803,3.965-8.738,3.965
	C115.794,147.242,112.843,145.913,110.937,143.253z"/>
<path fill="#D42836" d="M152.758,86.793v68.518h11.389V86.793H152.758z"/>
<path fill="#666666" d="M213.252,113.859c-2.121-2.121-4.511-3.75-7.17-4.888c-2.659-1.137-5.756-1.706-9.291-1.706
	c-3.72,0-7.009,0.615-9.867,1.845c-2.859,1.229-5.256,2.928-7.193,5.095c-1.937,2.167-3.405,4.734-4.404,7.7
	c-0.999,2.967-1.499,6.187-1.499,9.66c0,3.873,0.561,7.324,1.683,10.351c1.122,3.028,2.644,5.587,4.565,7.677
	c1.92,2.091,4.173,3.682,6.755,4.772s5.333,1.637,8.253,1.637c1.66,0,3.335-0.123,5.026-0.369c1.69-0.247,3.327-0.669,4.911-1.268
	c1.583-0.6,3.112-1.398,4.588-2.398c1.476-0.999,2.843-2.236,4.104-3.711l-3.273-4.15c-0.461-0.707-1.153-1.061-2.075-1.061
	c-0.708,0-1.345,0.223-1.913,0.668c-0.569,0.446-1.238,0.938-2.006,1.476c-0.769,0.538-1.714,1.03-2.836,1.476
	c-1.123,0.446-2.59,0.668-4.403,0.668c-1.814,0-3.443-0.346-4.888-1.038c-1.445-0.691-2.674-1.706-3.688-3.043
	c-1.015-1.337-1.791-2.989-2.329-4.957c-0.538-1.967-0.807-4.211-0.807-6.732c0-2.428,0.246-4.603,0.738-6.525
	c0.492-1.92,1.237-3.558,2.236-4.91c0.999-1.353,2.251-2.39,3.758-3.112c1.506-0.722,3.258-1.084,5.257-1.084
	c1.567,0,2.882,0.177,3.942,0.53c1.06,0.354,1.975,0.754,2.743,1.199c0.768,0.446,1.429,0.846,1.983,1.199
	c0.553,0.354,1.122,0.53,1.706,0.53c0.614,0,1.083-0.123,1.406-0.369c0.323-0.246,0.653-0.583,0.991-1.014L213.252,113.859z"/>
<path fill="#666666" d="M231.556,108.971c-2.89,1.138-5.356,2.751-7.4,4.842c-2.044,2.09-3.627,4.642-4.749,7.654
	c-1.123,3.013-1.683,6.379-1.683,10.098c0,3.75,0.561,7.131,1.683,10.144c1.122,3.013,2.705,5.579,4.749,7.7
	c2.044,2.121,4.511,3.75,7.4,4.887c2.889,1.137,6.102,1.706,9.637,1.706c3.534,0,6.739-0.569,9.613-1.706
	c2.874-1.137,5.326-2.767,7.354-4.887c2.029-2.121,3.597-4.688,4.703-7.7c1.107-3.013,1.66-6.394,1.66-10.144
	c0-3.719-0.553-7.085-1.66-10.098c-1.106-3.012-2.674-5.563-4.703-7.654s-4.48-3.704-7.354-4.842
	c-2.875-1.137-6.079-1.706-9.613-1.706C237.658,107.265,234.446,107.834,231.556,108.971z M232.341,143.253
	c-1.906-2.659-2.859-6.524-2.859-11.597c0-5.072,0.953-8.952,2.859-11.642c1.905-2.689,4.856-4.035,8.853-4.035
	c3.934,0,6.847,1.337,8.737,4.011c1.891,2.674,2.836,6.563,2.836,11.666c0,5.103-0.945,8.977-2.836,11.62
	c-1.89,2.644-4.803,3.965-8.737,3.965C237.197,147.242,234.246,145.913,232.341,143.253z"/>
<path fill="#666666" d="M272.455,108.003v30.063c0,2.644,0.346,5.065,1.038,7.262c0.692,2.198,1.713,4.097,3.066,5.695
	c1.352,1.599,3.02,2.835,5.002,3.711c1.983,0.876,4.265,1.314,6.848,1.314c1.567,0,3.035-0.162,4.403-0.484
	c1.367-0.323,2.643-0.768,3.827-1.337c1.183-0.569,2.297-1.26,3.343-2.075c1.044-0.814,2.059-1.713,3.043-2.697l0.784,3.781
	c0.461,1.383,1.429,2.075,2.905,2.075h6.962v-47.308h-11.389v34.213c-1.537,1.538-3.167,2.744-4.887,3.62
	c-1.722,0.876-3.566,1.314-5.533,1.314c-2.674,0-4.68-0.791-6.018-2.375c-1.337-1.583-2.005-3.819-2.005-6.709v-30.063H272.455z"/>
<path fill="#666666" d="M337.238,155.311v-34.213c1.537-1.537,3.166-2.751,4.887-3.643c1.721-0.892,3.565-1.337,5.533-1.337
	c2.674,0,4.68,0.792,6.017,2.375c1.337,1.583,2.006,3.82,2.006,6.709v30.109h11.389v-30.109c0-2.643-0.346-5.064-1.038-7.262
	c-0.691-2.197-1.706-4.088-3.043-5.671c-1.337-1.583-3.005-2.813-5.002-3.688c-1.999-0.876-4.288-1.314-6.87-1.314
	c-1.599,0-3.074,0.154-4.427,0.461c-1.353,0.308-2.621,0.753-3.804,1.337c-1.184,0.584-2.305,1.276-3.366,2.075
	s-2.068,1.691-3.02,2.674l-0.784-3.735c-0.461-1.383-1.43-2.075-2.905-2.075h-6.962v47.308H337.238z"/>
<path fill="#666666" d="M400.499,154.988c2.151-0.707,4.058-1.752,5.717-3.136l-3.412-5.533c-0.246-0.338-0.477-0.592-0.691-0.761
	c-0.215-0.169-0.492-0.254-0.83-0.254c-0.277,0-0.553,0.085-0.83,0.254c-0.276,0.169-0.592,0.346-0.945,0.53
	c-0.354,0.185-0.769,0.362-1.245,0.53c-0.477,0.169-1.068,0.254-1.775,0.254c-1.23,0-2.213-0.415-2.951-1.245
	c-0.738-0.83-1.107-1.983-1.107-3.458v-25.637h12.45v-8.115h-12.45V93.525h-5.902c-0.676,0-1.238,0.169-1.683,0.507
	c-0.446,0.339-0.73,0.815-0.853,1.43l-2.397,12.911l-7.608,1.245v4.519c0,0.799,0.223,1.399,0.668,1.798
	c0.445,0.4,0.976,0.6,1.591,0.6h4.795v26.42c0,4.089,1.106,7.293,3.32,9.614c2.213,2.321,5.364,3.481,9.452,3.481
	C396.119,156.049,398.347,155.695,400.499,154.988z"/>
<path fill="#666666" d="M425.351,155.311v-29.464c1.168-2.52,2.597-4.434,4.288-5.741c1.69-1.306,3.719-1.959,6.086-1.959
	c1.321,0,2.382,0.108,3.182,0.323c0.799,0.215,1.429,0.323,1.89,0.323c0.522,0,0.938-0.115,1.245-0.346
	c0.307-0.23,0.507-0.623,0.6-1.176l1.476-8.53c-1.538-1.076-3.474-1.614-5.81-1.614c-2.829,0-5.379,0.846-7.654,2.536
	c-2.275,1.691-4.258,3.996-5.948,6.916l-0.692-5.717c-0.154-1.044-0.461-1.782-0.922-2.213c-0.461-0.43-1.276-0.646-2.444-0.646
	h-6.686v47.308H425.351z"/>
<path fill="#666666" d="M452.37,108.003v47.308h11.389v-47.308H452.37z"/>
<path fill="#666666" d="M486.652,109.11c-2.813,1.229-5.195,2.897-7.147,5.002c-1.952,2.106-3.451,4.581-4.496,7.424
	c-1.045,2.844-1.567,5.879-1.567,9.106c0,4.15,0.599,7.8,1.798,10.951c1.199,3.151,2.843,5.795,4.934,7.931
	c2.09,2.137,4.549,3.751,7.377,4.842c2.828,1.091,5.886,1.637,9.175,1.637c1.66,0,3.374-0.123,5.142-0.369
	c1.767-0.247,3.504-0.669,5.21-1.268c1.706-0.6,3.343-1.398,4.911-2.398c1.568-0.999,2.981-2.236,4.242-3.711l-3.32-4.15
	c-0.247-0.338-0.538-0.6-0.876-0.784c-0.339-0.185-0.738-0.277-1.199-0.277c-0.708,0-1.437,0.215-2.19,0.646
	c-0.753,0.431-1.63,0.907-2.628,1.429c-0.999,0.523-2.167,1-3.504,1.43c-1.337,0.431-2.928,0.646-4.772,0.646
	c-3.75,0-6.763-1.137-9.038-3.412c-2.275-2.274-3.581-5.84-3.919-10.697h29.233c0.522,0,0.953-0.069,1.291-0.208
	c0.338-0.138,0.607-0.369,0.807-0.692c0.2-0.323,0.338-0.768,0.415-1.337c0.076-0.568,0.115-1.283,0.115-2.144
	c0-3.412-0.507-6.447-1.521-9.106c-1.015-2.659-2.429-4.903-4.242-6.732c-1.814-1.829-3.974-3.22-6.479-4.173
	c-2.505-0.953-5.249-1.43-8.23-1.43C492.638,107.265,489.465,107.88,486.652,109.11z M500.831,116.28
	c1.26,0.569,2.305,1.345,3.135,2.328c0.83,0.984,1.445,2.129,1.844,3.436s0.6,2.697,0.6,4.172h-21.395
	c0.522-3.442,1.721-6.101,3.597-7.977c1.875-1.875,4.472-2.813,7.792-2.813C498.094,115.427,499.57,115.711,500.831,116.28z"/>
<path fill="#666666" d="M556.575,113.121c-1.783-1.752-4.011-3.166-6.686-4.242c-2.674-1.076-5.641-1.614-8.899-1.614
	c-2.921,0-5.495,0.392-7.724,1.176c-2.229,0.784-4.088,1.829-5.579,3.136c-1.491,1.307-2.621,2.835-3.389,4.588
	c-0.769,1.752-1.153,3.596-1.153,5.533c0,2.091,0.33,3.874,0.991,5.349c0.661,1.476,1.537,2.721,2.628,3.735
	c1.09,1.015,2.335,1.853,3.735,2.513c1.398,0.661,2.828,1.238,4.288,1.729c1.459,0.492,2.889,0.945,4.288,1.36
	c1.398,0.415,2.643,0.884,3.735,1.406c1.091,0.523,1.967,1.138,2.628,1.844c0.661,0.708,0.992,1.614,0.992,2.721
	c0,0.737-0.146,1.452-0.438,2.144c-0.292,0.691-0.753,1.299-1.383,1.821c-0.631,0.523-1.43,0.945-2.398,1.268
	c-0.968,0.322-2.129,0.484-3.481,0.484c-1.722,0-3.144-0.2-4.265-0.6c-1.123-0.399-2.098-0.83-2.928-1.291
	c-0.83-0.461-1.561-0.891-2.19-1.291c-0.63-0.399-1.299-0.599-2.006-0.599c-0.708,0-1.291,0.138-1.752,0.415
	c-0.461,0.277-0.861,0.677-1.199,1.199l-2.628,4.334c0.922,0.83,1.99,1.599,3.205,2.306c1.214,0.708,2.536,1.322,3.965,1.844
	c1.429,0.523,2.92,0.929,4.473,1.222c1.552,0.292,3.143,0.438,4.772,0.438c3.043,0,5.741-0.392,8.092-1.176
	c2.352-0.784,4.326-1.875,5.925-3.274c1.598-1.398,2.813-3.059,3.643-4.98c0.83-1.92,1.245-4.019,1.245-6.293
	c0-1.906-0.331-3.535-0.991-4.888c-0.662-1.353-1.538-2.513-2.628-3.481c-1.091-0.968-2.328-1.767-3.712-2.397
	c-1.383-0.63-2.797-1.191-4.242-1.683c-1.445-0.491-2.859-0.945-4.242-1.36c-1.383-0.415-2.621-0.883-3.711-1.406
	c-1.092-0.522-1.968-1.129-2.628-1.821c-0.662-0.691-0.991-1.544-0.991-2.559c0-1.537,0.646-2.782,1.937-3.735
	c1.291-0.952,3.058-1.429,5.302-1.429c1.445,0,2.697,0.154,3.758,0.461c1.061,0.308,2.006,0.654,2.836,1.038
	c0.83,0.385,1.56,0.73,2.19,1.038c0.629,0.308,1.222,0.461,1.775,0.461c0.522,0,0.953-0.1,1.291-0.3
	c0.338-0.199,0.661-0.545,0.968-1.037L556.575,113.121z"/>
<path fill="#D42836" d="M532.522,51.173l-16.253-25.586L532.522,0H453.88v92.089h-11.183v10.229h33.55V92.089h-11.183V51.173
	H532.522z M465.064,10.256h48.014l-9.752,15.357l9.752,15.357h-48.014V10.256z"/>
</svg>
