<?xml version="1.0" encoding="utf-8"?>
<!-- Generator: Adobe Illustrator 15.0.0, SVG Export Plug-In . SVG Version: 6.00 Build 0)  -->
<!DOCTYPE svg PUBLIC "-//W3C//DTD SVG 1.1//EN" "http://www.w3.org/Graphics/SVG/1.1/DTD/svg11.dtd">
<svg version="1.1" id="Ebene_1" xmlns="http://www.w3.org/2000/svg" xmlns:xlink="http://www.w3.org/1999/xlink" x="0px" y="0px"
	 width="558px" height="160px" viewBox="141.945 217.64 558 160" enable-background="new 141.945 217.64 558 160"
	 xml:space="preserve">
<path fill="#D42836" d="M181.368,331.5c-2.121-2.121-4.511-3.75-7.17-4.889c-2.659-1.137-5.756-1.705-9.291-1.705
	c-3.72,0-7.009,0.614-9.867,1.844c-2.859,1.229-5.257,2.929-7.193,5.096s-3.405,4.734-4.403,7.699c-1,2.968-1.499,6.187-1.499,9.66
	c0,3.873,0.56,7.324,1.683,10.352c1.122,3.027,2.643,5.587,4.565,7.677c1.921,2.091,4.173,3.683,6.755,4.772
	s5.333,1.637,8.253,1.637c1.66,0,3.335-0.123,5.026-0.369c1.69-0.247,3.327-0.669,4.91-1.268c1.583-0.6,3.112-1.398,4.588-2.398
	c1.476-0.999,2.843-2.236,4.104-3.711l-3.274-4.15c-0.461-0.707-1.153-1.061-2.075-1.061c-0.708,0-1.345,0.223-1.914,0.668
	c-0.569,0.446-1.238,0.938-2.006,1.477c-0.769,0.537-1.714,1.029-2.836,1.476c-1.122,0.446-2.59,0.668-4.403,0.668
	c-1.814,0-3.443-0.347-4.888-1.038c-1.445-0.691-2.674-1.706-3.688-3.043c-1.014-1.337-1.791-2.988-2.329-4.957
	c-0.538-1.967-0.807-4.211-0.807-6.732c0-2.428,0.246-4.603,0.738-6.524c0.491-1.92,1.237-3.558,2.236-4.91s2.251-2.39,3.758-3.112
	c1.506-0.722,3.258-1.084,5.256-1.084c1.568,0,2.882,0.178,3.942,0.53c1.061,0.354,1.975,0.754,2.743,1.199
	c0.768,0.446,1.429,0.846,1.983,1.198c0.553,0.354,1.122,0.531,1.706,0.531c0.615,0,1.083-0.123,1.406-0.369
	c0.323-0.246,0.653-0.584,0.991-1.015L181.368,331.5z"/>
<path fill="#D42836" d="M199.672,326.611c-2.89,1.139-5.356,2.752-7.4,4.842c-2.045,2.09-3.627,4.643-4.749,7.654
	c-1.122,3.014-1.683,6.379-1.683,10.098c0,3.75,0.561,7.131,1.683,10.145s2.705,5.579,4.749,7.7c2.044,2.12,4.511,3.75,7.4,4.887
	c2.889,1.138,6.102,1.706,9.637,1.706c3.534,0,6.739-0.568,9.613-1.706c2.874-1.137,5.326-2.767,7.354-4.887
	c2.029-2.121,3.597-4.688,4.703-7.7c1.107-3.014,1.66-6.395,1.66-10.145c0-3.719-0.553-7.084-1.66-10.098
	c-1.106-3.012-2.674-5.563-4.703-7.654c-2.029-2.09-4.48-3.703-7.354-4.842c-2.875-1.137-6.079-1.705-9.613-1.705
	C205.774,324.906,202.561,325.474,199.672,326.611z M200.456,360.893c-1.906-2.659-2.859-6.524-2.859-11.597
	s0.953-8.952,2.859-11.643c1.905-2.688,4.856-4.035,8.853-4.035c3.934,0,6.847,1.338,8.737,4.012s2.836,6.563,2.836,11.666
	c0,5.103-0.945,8.977-2.836,11.619c-1.891,2.645-4.803,3.966-8.737,3.966C205.313,364.882,202.362,363.553,200.456,360.893z"/>
<path fill="#D42836" d="M252.098,326.611c-2.89,1.139-5.356,2.752-7.4,4.842c-2.045,2.09-3.627,4.643-4.75,7.654
	c-1.122,3.014-1.683,6.379-1.683,10.098c0,3.75,0.561,7.131,1.683,10.145s2.705,5.579,4.75,7.7c2.044,2.12,4.511,3.75,7.4,4.887
	c2.889,1.138,6.102,1.706,9.637,1.706s6.739-0.568,9.614-1.706c2.874-1.137,5.326-2.767,7.354-4.887
	c2.029-2.121,3.597-4.688,4.703-7.7s1.66-6.395,1.66-10.145c0-3.719-0.554-7.084-1.66-10.098c-1.106-3.012-2.674-5.563-4.703-7.654
	c-2.029-2.09-4.48-3.703-7.354-4.842c-2.875-1.137-6.079-1.705-9.614-1.705S254.987,325.474,252.098,326.611z M252.882,360.893
	c-1.906-2.659-2.858-6.524-2.858-11.597s0.952-8.952,2.858-11.643c1.906-2.688,4.857-4.035,8.853-4.035
	c3.935,0,6.847,1.338,8.738,4.012c1.891,2.674,2.836,6.563,2.836,11.666c0,5.103-0.945,8.977-2.836,11.619
	c-1.891,2.645-4.803,3.966-8.738,3.966C257.739,364.882,254.788,363.553,252.882,360.893z"/>
<path fill="#D42836" d="M294.703,304.433v68.518h11.389v-68.518H294.703z"/>
<path fill="#666666" d="M355.197,331.5c-2.121-2.121-4.511-3.75-7.17-4.889c-2.659-1.137-5.756-1.705-9.291-1.705
	c-3.72,0-7.009,0.614-9.867,1.844c-2.859,1.229-5.256,2.929-7.193,5.096s-3.405,4.734-4.404,7.699
	c-0.999,2.968-1.499,6.188-1.499,9.66c0,3.873,0.561,7.324,1.683,10.352c1.122,3.027,2.644,5.587,4.565,7.677
	c1.92,2.091,4.173,3.683,6.755,4.772s5.333,1.637,8.253,1.637c1.66,0,3.335-0.123,5.026-0.369c1.69-0.247,3.327-0.669,4.911-1.268
	c1.583-0.6,3.112-1.398,4.588-2.398c1.476-0.999,2.843-2.236,4.104-3.711l-3.273-4.15c-0.461-0.707-1.153-1.061-2.075-1.061
	c-0.708,0-1.345,0.223-1.913,0.668c-0.569,0.446-1.238,0.938-2.006,1.477c-0.769,0.537-1.714,1.029-2.836,1.476
	c-1.123,0.446-2.59,0.668-4.403,0.668c-1.814,0-3.443-0.347-4.888-1.038c-1.445-0.691-2.674-1.706-3.688-3.043
	c-1.015-1.337-1.791-2.988-2.329-4.957c-0.538-1.967-0.807-4.211-0.807-6.732c0-2.428,0.246-4.603,0.738-6.524
	c0.492-1.92,1.237-3.558,2.236-4.91c0.999-1.353,2.251-2.39,3.758-3.112c1.506-0.722,3.258-1.084,5.257-1.084
	c1.567,0,2.882,0.178,3.942,0.53c1.06,0.354,1.975,0.754,2.743,1.199c0.768,0.446,1.429,0.846,1.983,1.198
	c0.553,0.354,1.122,0.531,1.706,0.531c0.614,0,1.083-0.123,1.406-0.369c0.323-0.246,0.653-0.584,0.991-1.015L355.197,331.5z"/>
<path fill="#666666" d="M373.501,326.611c-2.89,1.139-5.356,2.752-7.4,4.842c-2.044,2.09-3.627,4.643-4.749,7.654
	c-1.123,3.014-1.683,6.379-1.683,10.098c0,3.75,0.561,7.131,1.683,10.145c1.122,3.014,2.705,5.579,4.749,7.7
	c2.044,2.12,4.511,3.75,7.4,4.887c2.889,1.138,6.102,1.706,9.637,1.706c3.534,0,6.739-0.568,9.613-1.706
	c2.874-1.137,5.326-2.767,7.354-4.887c2.029-2.121,3.597-4.688,4.703-7.7c1.107-3.014,1.66-6.395,1.66-10.145
	c0-3.719-0.553-7.084-1.66-10.098c-1.106-3.012-2.674-5.563-4.703-7.654c-2.029-2.09-4.48-3.703-7.354-4.842
	c-2.875-1.137-6.079-1.705-9.613-1.705C379.603,324.906,376.391,325.474,373.501,326.611z M374.286,360.893
	c-1.906-2.659-2.859-6.524-2.859-11.597s0.953-8.952,2.859-11.643c1.905-2.688,4.856-4.035,8.853-4.035
	c3.934,0,6.847,1.338,8.737,4.012c1.891,2.674,2.836,6.563,2.836,11.666c0,5.103-0.945,8.977-2.836,11.619
	c-1.89,2.645-4.803,3.966-8.737,3.966C379.142,364.882,376.191,363.553,374.286,360.893z"/>
<path fill="#666666" d="M414.4,325.643v30.063c0,2.644,0.346,5.064,1.038,7.262c0.692,2.197,1.713,4.097,3.066,5.695
	c1.352,1.599,3.02,2.834,5.001,3.711c1.983,0.875,4.266,1.313,6.849,1.313c1.567,0,3.034-0.162,4.403-0.483
	c1.367-0.323,2.643-0.769,3.826-1.338c1.184-0.568,2.297-1.26,3.344-2.074c1.043-0.814,2.059-1.713,3.043-2.697l0.783,3.781
	c0.461,1.383,1.43,2.074,2.905,2.074h6.962v-47.308h-11.389v34.213c-1.537,1.538-3.167,2.744-4.887,3.62
	c-1.723,0.876-3.566,1.314-5.533,1.314c-2.674,0-4.68-0.791-6.018-2.375s-2.006-3.819-2.006-6.709v-30.063H414.4z"/>
<path fill="#666666" d="M479.183,372.951v-34.213c1.537-1.537,3.166-2.75,4.887-3.643s3.564-1.337,5.533-1.337
	c2.674,0,4.68,0.792,6.017,2.375s2.007,3.819,2.007,6.709v30.108h11.389v-30.108c0-2.644-0.346-5.063-1.038-7.263
	c-0.691-2.196-1.706-4.088-3.043-5.67c-1.337-1.584-3.005-2.813-5.003-3.688c-1.998-0.876-4.287-1.313-6.869-1.313
	c-1.6,0-3.074,0.153-4.428,0.461c-1.353,0.308-2.621,0.752-3.803,1.336c-1.185,0.584-2.306,1.276-3.367,2.076
	c-1.061,0.799-2.067,1.69-3.02,2.674l-0.784-3.735c-0.461-1.384-1.43-2.075-2.905-2.075h-6.961v47.309h11.389V372.951z"/>
<path fill="#666666" d="M542.444,372.628c2.151-0.707,4.058-1.752,5.717-3.137l-3.411-5.533c-0.246-0.338-0.478-0.592-0.691-0.76
	c-0.215-0.17-0.492-0.254-0.83-0.254c-0.277,0-0.553,0.084-0.83,0.254c-0.275,0.168-0.592,0.346-0.945,0.529
	c-0.354,0.186-0.769,0.362-1.244,0.53c-0.478,0.169-1.068,0.254-1.775,0.254c-1.23,0-2.213-0.415-2.951-1.245
	s-1.107-1.982-1.107-3.458v-25.637h12.45v-8.115h-12.45v-14.892h-5.902c-0.676,0-1.237,0.168-1.682,0.507
	c-0.447,0.339-0.73,0.815-0.854,1.43l-2.396,12.911l-7.609,1.245v4.519c0,0.799,0.224,1.399,0.669,1.799
	c0.444,0.399,0.976,0.6,1.591,0.6h4.795v26.42c0,4.089,1.105,7.293,3.32,9.613c2.213,2.322,5.363,3.481,9.451,3.481
	C538.064,373.689,540.292,373.335,542.444,372.628z"/>
<path fill="#666666" d="M567.296,372.951v-29.463c1.168-2.521,2.598-4.435,4.287-5.742c1.691-1.306,3.721-1.959,6.086-1.959
	c1.322,0,2.383,0.108,3.184,0.324c0.799,0.215,1.428,0.322,1.889,0.322c0.523,0,0.939-0.115,1.246-0.346s0.506-0.623,0.6-1.176
	l1.477-8.53c-1.539-1.076-3.475-1.614-5.811-1.614c-2.828,0-5.379,0.846-7.654,2.536s-4.258,3.996-5.947,6.916l-0.693-5.718
	c-0.152-1.043-0.461-1.781-0.922-2.213c-0.461-0.43-1.275-0.646-2.443-0.646h-6.687v47.308H567.296z"/>
<path fill="#666666" d="M594.316,325.643v47.308h11.389v-47.308H594.316z"/>
<path fill="#666666" d="M628.597,326.75c-2.813,1.229-5.195,2.897-7.146,5.002c-1.953,2.106-3.451,4.582-4.496,7.425
	c-1.045,2.844-1.566,5.879-1.566,9.106c0,4.149,0.598,7.799,1.797,10.95s2.844,5.796,4.934,7.931
	c2.09,2.138,4.549,3.752,7.377,4.843s5.887,1.637,9.176,1.637c1.66,0,3.373-0.123,5.143-0.369c1.766-0.247,3.504-0.669,5.209-1.268
	c1.707-0.601,3.344-1.398,4.912-2.398c1.566-0.999,2.98-2.235,4.242-3.711l-3.32-4.149c-0.248-0.338-0.539-0.601-0.877-0.784
	c-0.338-0.185-0.738-0.277-1.199-0.277c-0.707,0-1.436,0.215-2.189,0.646c-0.754,0.432-1.631,0.908-2.629,1.43
	c-0.998,0.523-2.166,1-3.504,1.43c-1.336,0.432-2.928,0.646-4.771,0.646c-3.75,0-6.762-1.137-9.037-3.412
	c-2.275-2.274-3.582-5.84-3.92-10.697h29.232c0.523,0,0.953-0.068,1.291-0.208c0.34-0.138,0.607-0.369,0.809-0.692
	c0.199-0.322,0.338-0.768,0.414-1.336s0.115-1.283,0.115-2.145c0-3.412-0.508-6.447-1.521-9.105
	c-1.014-2.66-2.428-4.903-4.242-6.732c-1.813-1.829-3.973-3.221-6.479-4.174c-2.504-0.952-5.248-1.43-8.23-1.43
	C634.583,324.906,631.41,325.52,628.597,326.75z M642.777,333.919c1.26,0.57,2.305,1.346,3.135,2.328
	c0.83,0.984,1.445,2.129,1.844,3.437s0.6,2.697,0.6,4.172H626.96c0.521-3.442,1.721-6.101,3.598-7.977
	c1.875-1.875,4.471-2.813,7.791-2.813C640.039,333.067,641.515,333.351,642.777,333.919z"/>
<path fill="#666666" d="M698.521,330.761c-1.783-1.752-4.012-3.166-6.688-4.242c-2.674-1.076-5.641-1.613-8.898-1.613
	c-2.92,0-5.494,0.392-7.725,1.176c-2.229,0.783-4.088,1.828-5.578,3.136c-1.49,1.307-2.621,2.835-3.389,4.588
	c-0.77,1.752-1.152,3.597-1.152,5.533c0,2.091,0.328,3.874,0.99,5.349c0.66,1.477,1.537,2.721,2.627,3.735
	c1.092,1.015,2.336,1.853,3.736,2.513c1.398,0.661,2.828,1.238,4.287,1.729c1.459,0.492,2.889,0.945,4.289,1.36
	c1.396,0.415,2.643,0.884,3.734,1.406s1.967,1.138,2.629,1.844c0.66,0.708,0.99,1.614,0.99,2.722c0,0.736-0.145,1.451-0.438,2.144
	c-0.291,0.69-0.752,1.299-1.383,1.821s-1.43,0.945-2.398,1.268c-0.967,0.322-2.129,0.484-3.48,0.484c-1.723,0-3.145-0.2-4.266-0.6
	c-1.123-0.399-2.098-0.83-2.928-1.291c-0.83-0.462-1.561-0.892-2.189-1.291c-0.631-0.399-1.299-0.6-2.006-0.6
	c-0.709,0-1.291,0.139-1.752,0.415s-0.861,0.677-1.199,1.198l-2.629,4.334c0.924,0.83,1.99,1.6,3.205,2.307
	c1.215,0.708,2.537,1.322,3.967,1.844c1.428,0.523,2.92,0.93,4.473,1.223c1.551,0.291,3.143,0.438,4.771,0.438
	c3.043,0,5.74-0.392,8.092-1.176s4.326-1.875,5.926-3.273c1.598-1.398,2.813-3.06,3.643-4.98c0.83-1.92,1.244-4.02,1.244-6.293
	c0-1.906-0.33-3.535-0.99-4.889c-0.662-1.353-1.539-2.513-2.629-3.48c-1.09-0.969-2.328-1.768-3.711-2.396
	c-1.383-0.631-2.797-1.191-4.242-1.684c-1.445-0.491-2.859-0.945-4.242-1.359c-1.383-0.416-2.621-0.884-3.711-1.406
	c-1.092-0.522-1.969-1.129-2.629-1.821c-0.66-0.69-0.99-1.544-0.99-2.56c0-1.537,0.646-2.781,1.938-3.734
	c1.291-0.952,3.057-1.43,5.301-1.43c1.445,0,2.697,0.154,3.76,0.461c1.061,0.309,2.006,0.654,2.836,1.039s1.559,0.729,2.189,1.037
	c0.629,0.309,1.221,0.461,1.775,0.461c0.521,0,0.953-0.1,1.291-0.299s0.66-0.546,0.967-1.037L698.521,330.761z"/>
<path fill="#D42836" d="M674.466,268.813l-16.252-25.586l16.252-25.587h-78.641v92.089h-11.184v10.229h33.551v-10.229h-11.184
	v-40.916H674.466z M607.009,227.896h48.014l-9.752,15.357l9.752,15.357h-48.014V227.896z"/>
</svg>
